<svg width="347" height="35" viewBox="0 0 347 35" fill="none" xmlns="http://www.w3.org/2000/svg">
<path d="M345.553 26.6534C346.332 26.6534 347 27.3211 347 28.1002V31.3275C347 32.1065 346.332 32.7742 345.553 32.7742H324.52C323.741 32.7742 323.073 32.1065 323.073 31.3275V3.22734C323.073 2.44832 323.741 1.78059 324.52 1.78059H345.331C346.11 1.78059 346.777 2.44832 346.777 3.22734V6.45469C346.777 7.23371 346.11 7.90142 345.331 7.90142H329.973V14.1892H343.327C344.106 14.1892 344.774 14.8013 344.774 15.6359V18.8633C344.774 19.6423 344.106 20.31 343.327 20.31H329.973V26.8203H345.553V26.6534ZM301.093 33.1081C296.809 33.1081 292.468 31.7727 288.907 29.1017C288.239 28.601 288.184 27.7106 288.684 27.0986L290.966 24.4277C291.467 23.8156 292.301 23.7599 292.913 24.2051C295.417 26.0413 298.088 27.1542 301.204 27.1542C304.042 27.1542 305.712 26.0413 305.712 24.2051V24.1494C305.712 22.4245 304.654 21.5342 299.368 20.1987C293.025 18.5851 288.963 16.8601 288.963 10.7393V10.628C288.963 5.00795 293.525 1.33545 299.98 1.33545C304.042 1.33545 307.548 2.44833 310.497 4.45151C311.165 4.89666 311.276 5.73132 310.831 6.39905L308.828 9.29252C308.383 9.9046 307.548 10.0715 306.88 9.68203C304.487 8.23529 302.15 7.40063 299.869 7.40063C297.198 7.40063 295.807 8.56916 295.807 10.0715V10.1828C295.807 12.186 297.142 12.8537 302.596 14.2448C308.995 15.8585 312.556 18.1399 312.556 23.5374V23.593C312.612 29.6582 307.826 33.1081 301.093 33.1081ZM278.557 30.4928C279.225 31.4388 278.557 32.7186 277.389 32.7186H272.826C272.325 32.7186 271.88 32.496 271.601 32.0509L265.314 22.814H259.916V31.2719C259.916 32.0509 259.248 32.7186 258.469 32.7186H254.407C253.628 32.7186 252.961 32.0509 252.961 31.2719V3.17169C252.961 2.39268 253.628 1.72496 254.407 1.72496H267.317C271.268 1.72496 274.384 2.83783 276.443 4.84101C278.223 6.56597 279.114 9.01431 279.114 11.9078V12.0191C279.114 17.027 276.387 20.1431 272.381 21.5898L278.557 30.4928ZM272.158 12.2973C272.158 9.40382 270.099 7.84579 266.76 7.84579H259.916V16.7488H266.927C270.266 16.7488 272.214 14.9682 272.214 12.4086V12.2973H272.158ZM240.941 32.7186H219.908C219.129 32.7186 218.461 32.0509 218.461 31.2719V3.17169C218.461 2.39268 219.129 1.72496 219.908 1.72496H240.719C241.498 1.72496 242.165 2.39268 242.165 3.17169V6.39905C242.165 7.17806 241.498 7.84579 240.719 7.84579H225.361V14.1335H238.716C239.495 14.1335 240.162 14.7456 240.162 15.5803V18.8076C240.162 19.5866 239.495 20.2544 238.716 20.2544H225.361V26.7647H240.941C241.72 26.7647 242.388 27.4324 242.388 28.2114V31.4388C242.332 32.0509 241.72 32.7186 240.941 32.7186ZM196.759 31.9952C196.537 32.5517 196.036 32.8855 195.424 32.8855H191.306C190.694 32.8855 190.193 32.5517 189.971 31.9952L178.452 3.6725C178.063 2.72655 178.786 1.72496 179.788 1.72496H183.85C184.74 1.72496 185.519 2.2814 185.797 3.11606L193.476 23.5374L201.155 3.11606C201.489 2.2814 202.268 1.72496 203.103 1.72496H206.942C207.944 1.72496 208.667 2.72655 208.278 3.6725L196.759 31.9952ZM166.544 32.7186H162.482C161.703 32.7186 161.036 32.0509 161.036 31.2719V3.17169C161.036 2.39268 161.703 1.72496 162.482 1.72496H166.544C167.323 1.72496 167.991 2.39268 167.991 3.17169V31.2719C167.991 32.0509 167.323 32.7186 166.544 32.7186ZM147.291 32.7186H143.897C143.229 32.7186 142.617 32.3847 142.228 31.8839L127.649 13.0207V31.2719C127.649 32.0509 126.981 32.7186 126.202 32.7186H122.251C121.472 32.7186 120.805 32.0509 120.805 31.2719V3.17169C120.805 2.39268 121.472 1.72496 122.251 1.72496H126.146C126.814 1.72496 127.426 2.05883 127.816 2.55962L141.894 20.8108V3.17169C141.894 2.39268 142.562 1.72496 143.341 1.72496H147.291C148.07 1.72496 148.738 2.39268 148.738 3.17169V31.2719C148.738 32.0509 148.07 32.7186 147.291 32.7186ZM108.34 8.23529C110.065 10.9062 111.011 14.0779 111.011 17.4722C111.011 27.1542 103.054 35 93.2048 35C87.9185 35 83.1887 32.7186 79.9614 29.1574C77.5686 30.6598 75.3428 31.9396 73.5622 32.9968C72.7275 33.4976 71.8372 32.3847 72.5606 31.717C74.063 30.2703 75.9549 28.601 78.0694 26.7647C76.3445 24.0938 75.3985 20.9221 75.3985 17.5278C75.3985 7.84579 83.3557 0 93.2048 0C98.491 0 103.221 2.2814 106.448 5.84261C108.841 4.34022 111.067 3.06042 112.847 2.00318C113.682 1.50239 114.572 2.61526 113.849 3.28299C112.347 4.67408 110.51 6.3434 108.34 8.23529ZM103.722 12.0191C103.61 11.8522 103.499 11.6852 103.443 11.5739C103.332 11.4626 103.276 11.2957 103.165 11.1288C103.054 10.9618 102.943 10.7949 102.831 10.6836C102.72 10.5723 102.609 10.4054 102.497 10.2941C102.386 10.1828 102.275 10.0159 102.164 9.9046C102.052 9.79332 101.941 9.6264 101.83 9.51511C101.718 9.40382 101.551 9.23688 101.44 9.12559C99.3257 7.06677 96.3765 5.78696 93.2048 5.78696C86.6944 5.78696 81.3525 11.0175 81.3525 17.4722C81.3525 19.4197 81.8533 21.3116 82.7436 22.9253C82.8549 23.0922 82.9662 23.2591 83.0218 23.3704C83.1331 23.4817 83.1887 23.6486 83.3 23.8156C83.4113 23.9825 83.5226 24.1495 83.6339 24.2607C83.7452 24.372 83.8565 24.5389 83.9678 24.6502C84.0791 24.7615 84.1903 24.9285 84.3016 25.0397C84.4129 25.151 84.5242 25.318 84.6355 25.4292C84.7468 25.5405 84.9137 25.7075 85.025 25.8188C87.1395 27.8776 90.0887 29.1574 93.2604 29.1574C99.7708 29.1574 105.113 23.9269 105.113 17.4722C105.113 15.5246 104.612 13.6328 103.722 12.0191ZM93.2604 21.868C90.8121 21.868 88.8089 19.9205 88.8089 17.4722C88.8089 15.0238 90.8121 13.0763 93.2604 13.0763C95.7088 13.0763 97.712 15.0238 97.712 17.4722C97.712 19.9205 95.7088 21.868 93.2604 21.868ZM50.8592 33.2194C41.177 33.2194 34.2215 26.097 34.2215 17.3053V17.2496C34.2215 8.45787 41.2327 1.22416 50.9705 1.22416C60.7083 1.22416 67.6082 8.34658 67.6082 17.1383V17.2496C67.6082 25.9857 60.5414 33.2194 50.8592 33.2194ZM60.3744 17.194C60.3744 11.9078 56.4237 7.45628 50.8592 7.45628C45.2947 7.45628 41.4553 11.7965 41.4553 17.0827V17.194C41.4553 22.4801 45.406 26.9316 50.9705 26.9316C56.535 26.9316 60.3744 22.5914 60.3744 17.3053V17.194V17.194ZM24.7062 32.7186H1.44676C0.667735 32.7186 0 32.0509 0 31.2719V28.3784C0 27.8219 0.222579 27.3211 0.556447 26.876L17.2498 7.7345H1.94756C1.16854 7.7345 0.500802 7.12241 0.500802 6.3434V3.22734C0.500802 2.44832 1.16854 1.78059 1.94756 1.78059H24.7062C25.4852 1.78059 26.153 2.44832 26.153 3.22734V6.12083C26.153 6.67727 25.9304 7.17805 25.5965 7.6232L8.90314 26.7647H24.7062C25.4852 26.7647 26.153 27.3768 26.153 28.1558V31.2719C26.153 32.0509 25.4852 32.7186 24.7062 32.7186Z" fill="#9D9D9D"/>
</svg>
